<svg width="330" height="35" viewBox="0 0 330 35" fill="none" xmlns="http://www.w3.org/2000/svg">
<path d="M17.5802 0C14.8785 3.53845 11.096 11.7527 17.5802 16.3022C20.2819 14.6593 24.0644 9.09888 17.5802 0Z" fill="#003D32"/>
<path d="M34.9999 17.3327C31.5613 14.5525 23.5789 10.6602 19.1578 17.3327C20.7543 20.1129 26.1578 24.0052 34.9999 17.3327Z" fill="#003D32"/>
<path d="M17.5803 34.5C20.2821 30.9615 24.0645 22.7473 17.5803 18.1978C14.8786 19.8407 11.0961 25.4011 17.5803 34.5Z" fill="#003D32"/>
<path d="M1.56498e-07 17.3324C3.43859 20.1126 11.421 24.0049 15.8421 17.3324C14.2456 14.5521 8.84208 10.6599 1.56498e-07 17.3324Z" fill="#003D32"/>
<path d="M293.897 12.5906C297.737 12.1097 301.244 14.8293 301.735 18.6702C302.225 22.5111 299.513 26.0239 295.673 26.5229C291.821 27.0234 288.294 24.3012 287.802 20.4475C287.31 16.5938 290.042 13.0732 293.897 12.5906ZM295.785 26.1152C297.429 25.2267 298.374 24.1334 298.918 22.3146C299.566 20.1503 299.452 17.3824 298.369 15.3714C297.78 14.2769 296.854 13.429 295.649 13.0735C295.018 12.8876 294.372 12.9618 293.728 13.015C292.061 13.9636 291.076 15.1021 290.554 16.9967C289.962 19.1376 290.112 21.9182 291.224 23.8731C291.836 24.9505 292.747 25.7538 293.957 26.0831C294.565 26.2485 295.169 26.1776 295.785 26.1152Z" fill="#003D32"/>
<path d="M64.9119 12.5865C68.7616 12.1517 72.2356 14.9177 72.6744 18.7669C73.1131 22.616 70.3506 26.093 66.5019 26.5356C62.6476 26.9789 59.1646 24.2116 58.7253 20.3568C58.2859 16.5022 61.0567 13.0219 64.9119 12.5865ZM66.6715 26.134C68.2803 25.2933 69.2653 24.2262 69.8205 22.4519C70.4777 20.3513 70.3761 17.3929 69.3463 15.4344C68.763 14.3252 67.8503 13.4529 66.6372 13.0802C66.0085 12.887 65.3808 12.9537 64.7367 13.0087C63.115 13.845 62.1657 14.9036 61.5981 16.6738C60.8944 18.8682 60.9896 21.5828 62.0515 23.6512C62.6385 24.7946 63.5443 25.6562 64.7799 26.0484C65.4034 26.2463 66.0308 26.1848 66.6715 26.134Z" fill="#003D32"/>
<path d="M129.354 12.5945C133.215 12.1039 136.738 14.848 137.207 18.7114C137.677 22.5748 134.913 26.0826 131.047 26.5307C127.211 26.9752 123.737 24.2379 123.271 20.4043C122.805 16.5709 125.524 13.0813 129.354 12.5945ZM131.3 26.0993C132.925 25.215 133.877 24.0832 134.41 22.2752C135.055 20.0864 134.923 17.3729 133.824 15.3506C133.241 14.2773 132.307 13.4156 131.119 13.0721C130.508 12.8953 129.854 12.9639 129.228 13.0096C127.564 13.9469 126.581 15.0376 126.055 16.9234C125.445 19.1036 125.584 21.8966 126.712 23.8904C127.31 24.9485 128.226 25.7526 129.411 26.0756C130.044 26.2482 130.66 26.1733 131.3 26.0993Z" fill="#003D32"/>
<path d="M234.923 16.3786C235.112 15.9012 235.31 15.4265 235.514 14.9548C235.962 13.9366 236.585 13.1292 237.649 12.7205C238.406 12.4304 239.326 12.2953 240.088 12.6358C242.894 13.8898 242.149 20.4096 242.131 22.9664C242.127 23.6494 242.026 24.5699 242.274 25.2072C242.519 25.837 243.833 26.2078 244.422 26.4688L237.626 26.4901C238.255 26.1556 239.025 26.0237 239.538 25.4968C239.704 25.3261 239.878 25.1013 239.931 24.8654C240.23 23.5385 239.982 19.4821 239.96 17.8568C239.945 16.6672 239.874 14.8051 238.967 13.9341C238.799 13.7719 238.512 13.7396 238.281 13.7458C237.615 13.7635 237.041 14.0562 236.591 14.5388C234.604 16.6694 234.723 21.1086 234.83 23.8189C234.903 25.6778 235.384 25.2583 236.534 26.3207C236.218 26.5044 235.98 26.4696 235.621 26.4788C233.884 26.486 232.145 26.4773 230.409 26.4523C230.967 26.2403 231.647 26.034 232.135 25.6936C232.467 25.4615 232.592 25.2065 232.661 24.8164C232.911 23.3709 232.861 17.8114 232.633 16.2105C232.539 15.5472 232.373 14.8192 231.978 14.2639C231.821 14.0433 231.591 13.7969 231.313 13.7543C230.776 13.6722 230.18 13.8723 229.752 14.1933C228.48 15.1522 227.991 17.1931 227.78 18.7018C227.606 19.9453 227.331 24.518 227.973 25.4261C228.314 25.9085 229.058 25.8608 229.378 26.2836L229.251 26.4085C227.309 26.6656 225.154 26.4778 223.187 26.4637C223.844 26.2008 224.786 25.9361 225.258 25.3888C225.759 24.8086 225.542 15.3064 225.438 14.013C225.035 13.2579 223.883 12.9579 223.135 12.6655C223.853 12.6335 224.576 12.6081 225.294 12.6159C225.916 12.6226 226.624 12.7571 227.073 13.2269C227.837 14.0286 227.714 15.3146 227.702 16.3325C227.899 15.8496 228.105 15.3701 228.318 14.8942C228.944 13.5359 229.722 12.9707 231.077 12.4698C232.029 12.3911 232.666 12.6876 233.522 13.052C234.385 14.136 234.707 15.0309 234.923 16.3786Z" fill="#003D32"/>
<path d="M143.427 12.4829C144.456 12.4223 145.637 12.6233 146.579 13.0461C151.381 15.2018 148.541 22.0894 149.719 25.1138C150.002 25.8396 151.144 26.1735 151.818 26.4658C150.902 26.4933 149.775 26.6441 148.887 26.3965C148.089 26.1743 147.795 25.7454 147.401 25.046L147.386 23.3918C146.995 23.9078 146.616 24.4816 146.159 24.941C145.101 26.0044 143.674 26.6674 142.164 26.667C140.666 26.6666 139.502 26.0469 138.472 25.0167C138.291 24.6082 138.119 24.1998 138.054 23.7551C137.323 18.7663 144.791 20.0918 146.794 17.3648C147.118 16.9229 147.208 16.3992 147.126 15.8628C147.039 15.2972 146.614 14.167 146.133 13.8234C144.88 12.9293 143.989 12.8393 142.513 13.0759C140.754 14.7114 141.805 14.9837 140.94 16.2736C140.749 16.5586 140.516 16.7478 140.173 16.8118C140 16.8441 139.758 16.7746 139.614 16.6733C139.347 16.4852 139.182 16.1622 139.125 15.8447C139.029 15.3056 139.207 14.7656 139.515 14.3251C140.415 13.0361 141.986 12.7395 143.427 12.4829ZM141.148 24.9016C142.156 25.3561 143.252 25.4894 144.302 25.0883C145.478 24.6394 146.361 23.6168 146.86 22.4861C147.52 20.9923 147.505 19.393 147.353 17.8008L147.18 17.6111C145.416 19.5554 140.055 20.3035 140.175 23.0333C140.209 23.826 140.611 24.3631 141.148 24.9016Z" fill="#003D32"/>
<path d="M97.844 5.51892C98.1012 5.56634 98.3204 5.63381 98.5592 5.74064C98.9723 6.75675 98.6225 14.9528 98.6857 16.8215C98.8268 16.3421 98.9782 15.8629 99.19 15.4094C99.7608 14.1868 100.803 13.1547 102.08 12.6946C103.05 12.3452 104.09 12.309 105.034 12.7555C109.42 14.829 106.491 21.7338 107.711 25.082C108.046 26.0005 108.973 26.0991 109.771 26.4694C107.604 26.4866 105.436 26.4821 103.269 26.4558C103.745 26.2281 104.536 25.9383 104.892 25.5608C105.609 24.8018 105.246 17.7322 105.208 16.3461C105.15 15.9658 105.082 15.5908 104.931 15.2345C104.682 14.6447 104.24 14.1551 103.64 13.9126C102.981 13.6459 102.23 13.7188 101.586 13.9964C100.483 14.4724 99.6789 15.5225 99.2482 16.6174C98.6703 18.0875 98.2848 23.9855 98.8522 25.2628C99.1601 25.956 100.312 26.2044 100.995 26.4618C98.6988 26.4983 96.3988 26.4766 94.1024 26.4831C94.8936 26.0844 95.7333 25.996 96.2601 25.2038C96.432 24.9452 96.6261 9.81974 96.3821 8.66972C96.2271 7.93839 95.3282 7.7173 94.7625 7.34065L94.8056 7.1665C95.5049 6.97773 96.2231 6.85542 96.9172 6.65641C97.3688 6.52691 97.6291 5.90296 97.844 5.51892Z" fill="#003D32"/>
<path d="M40.952 26.4662C41.7204 26.1623 43.2351 25.7282 43.2503 24.724C43.3272 19.6103 43.2749 14.4894 43.2825 9.37531C43.286 7.05384 41.7694 8.20488 41.5632 7.17859C41.9957 6.8371 44.4281 7.03664 45.1245 7.06885C45.7019 7.36105 54.2545 22.2943 55.4415 24.2121C55.6142 24.4391 55.6723 24.4626 55.9372 24.568C56.0795 25.8416 57.2819 26.0049 58.2887 26.4832L54.2244 26.4843C53.0058 23.8933 50.1386 19.5382 48.6392 16.8468C47.7477 15.2464 44.5967 9.76307 43.6244 8.51726C43.619 12.9422 43.5044 20.5747 43.7915 25.1788C43.8204 25.6431 45.2785 26.2171 45.79 26.4339C44.2362 26.5202 42.5192 26.4754 40.952 26.4662Z" fill="#003D32"/>
<path d="M274.521 12.5242C275.499 12.7686 276.04 12.9397 276.91 13.315C280.02 14.6574 281.007 19.1148 280.075 22.1276C278.429 27.453 270.411 28.2962 267.704 23.381C265.403 19.2025 267.181 13.5902 271.903 12.7274L272.089 13.2389C268.97 15.2825 268.651 18.8391 269.381 22.2077C270.265 26.2851 274.808 27.8789 277.079 23.8834C278.29 21.7521 278.196 18.9976 277.738 16.6559C277.389 14.9934 276.023 13.8123 274.6 13.0174L274.521 12.5242Z" fill="#003D32"/>
<path d="M156.822 12.494C157.738 12.4459 158.669 12.5631 159.56 12.7786C160.577 13.0246 161.868 13.6236 162.426 14.5633C162.651 14.9409 162.729 15.4527 162.617 15.8747C162.513 16.2658 162.234 16.6423 161.881 16.843C161.623 16.9893 161.564 16.962 161.294 16.889C160.659 16.2699 160.533 15.0822 160.124 14.2894C159.819 13.6844 159.283 13.227 158.638 13.0194C157.901 12.789 156.952 12.8256 156.264 13.1909C155.449 13.6233 154.971 14.0955 154.702 14.9795C154.486 15.6908 154.787 16.1278 155.116 16.7473C157.711 18.3427 160.988 18.6103 162.727 21.3554C162.845 22.4979 162.863 23.4948 162.205 24.4978C161.259 25.9406 159.589 26.3029 158.017 26.6343L157.915 26.6408C156.273 26.7396 154.11 26.4224 152.849 25.2984C152.349 24.8527 151.999 24.2413 151.965 23.5634C151.945 23.1718 152.057 22.6748 152.339 22.3859C152.587 22.1314 152.764 22.1206 153.093 22.1151C154.209 22.6658 154.105 24.3871 154.655 25.4273C155.394 25.9165 156.178 26.1898 157.064 26.2235C157.976 26.2581 158.858 25.99 159.532 25.3594C160.066 24.8598 160.6 24.1393 160.621 23.3786C160.698 20.6472 155.645 19.7044 153.781 18.561C153.326 18.282 152.935 17.8261 152.57 17.4394C152.532 17.2789 152.5 17.1161 152.468 16.9542C152.287 16.0355 152.31 15.1694 152.852 14.3676C153.727 13.0738 155.401 12.7733 156.822 12.494Z" fill="#003D32"/>
<path d="M252.176 12.6959C257.882 14.1609 255.869 20.5918 256.341 24.7848C256.447 25.7321 257.672 26.1187 258.439 26.4459C255.53 26.5462 254.026 26.8567 254.154 23.347C253.312 24.4383 252.645 25.4484 251.345 26.062C248.889 27.2222 246.959 26.7506 245.108 24.9253C244.622 23.3136 244.609 22.9253 245.201 21.2975C248.378 19.0317 249.878 19.5498 252.695 18.06L252.684 18.7632C251.294 19.2342 249.704 19.9734 248.428 20.6951C247.267 21.2816 246.324 22.9276 247.231 24.0688C249.428 26.8302 253.538 24.5364 253.923 21.4867C254.031 20.6274 254.387 18.2358 253.983 17.6285L253.457 17.4886C253.567 17.322 253.663 17.1466 253.743 16.964C254.487 15.2485 252.672 13.5045 251.215 12.8711C251.334 12.8074 252.001 12.7224 252.176 12.6959Z" fill="#003D32"/>
<path d="M325.526 12.712C327.026 12.5878 327.851 12.4392 329.235 13.0643L329.849 14.1414L329.875 22.5088C329.877 24.4039 330.002 26.4343 329.65 28.289C329.093 31.2192 326.827 33.472 323.742 33.4022C322.611 33.3809 321.055 33.1902 320.208 32.3814C319.513 31.7178 319 30.0752 319.594 29.2135C321.775 27.9986 321.056 32.768 322.856 33.052C324.813 33.361 326.771 32.1828 327.212 30.2166C327.515 29.1866 328.027 23.5543 327.55 22.9766L327.176 22.6069C327.601 20.8315 328.072 15.7226 327.424 13.8158C327.265 13.3452 326.049 12.9158 325.526 12.712Z" fill="#003D32"/>
<path d="M284.054 5.59839L284.709 5.66104C284.749 5.69555 284.878 5.78642 284.9 5.82731C285.164 6.31843 284.937 18.7473 284.924 20.3915C284.915 21.5481 284.648 24.2558 285.082 25.1871C285.424 25.9195 286.561 26.1971 287.268 26.4616L281.689 26.4857C281.513 26.4855 281.327 26.4577 281.152 26.4428L281.094 26.2857C281.392 26.101 281.693 25.9164 281.978 25.7135C282.203 25.5538 282.66 25.2424 282.697 24.9568C282.857 23.7295 282.842 9.06132 282.664 8.53848C282.402 7.77052 281.522 7.92631 281.145 7.42325C281.118 7.38657 281.092 7.35032 281.068 7.31051C281.349 6.72436 282.546 6.90458 283.089 6.68913C283.622 6.47814 283.831 6.09862 284.054 5.59839Z" fill="#003D32"/>
<path d="M201.037 20.8562C200.718 21.182 200.526 21.3391 200.389 21.7823C200.534 24.974 205.034 26.5313 207.579 25.2169C208.3 24.845 208.586 24.4217 209.148 23.8724L209.32 23.9054C209.351 24.2695 209.09 24.7974 208.82 25.0358C206.279 27.3131 201.917 27.0594 199.528 24.6795C196.947 22.1084 196.874 17.0939 199.482 14.4935C203.106 10.8807 210.612 12.1846 210.1 18.1974C210.081 18.4118 210.014 18.4233 209.871 18.564L209.501 18.479C208.848 18.1123 208.001 18.393 207.671 18.0311C209.383 11.6994 201.192 11.5393 200.139 17.1203C199.978 17.9698 199.667 20.2458 200.089 20.9781L200.311 20.8421C200.656 20.791 200.77 20.711 201.037 20.8562Z" fill="#003D32"/>
<path d="M116.516 12.4843C116.877 12.4634 117.245 12.451 117.605 12.4762C119.073 12.579 120.946 12.9761 121.942 14.1355C122.323 14.5794 122.569 15.1364 122.52 15.7304C122.491 16.0812 122.342 16.493 122.058 16.7164C121.775 16.9394 121.588 16.8907 121.26 16.844C120.357 16.2649 120.429 15.1398 120.196 14.1797C119.714 13.7242 119.244 13.3141 118.602 13.1044C117.617 12.7823 116.594 12.8496 115.67 13.3244C114.388 13.9837 113.596 15.2325 113.169 16.5727C112.526 18.5905 112.524 21.0135 113.516 22.9174C114.387 24.5889 115.641 25.1755 117.344 25.7101C120.25 25.8808 121.353 23.968 122.111 23.9723C122.135 24.2222 122.092 24.3237 121.952 24.5299C121.365 25.4001 119.836 26.2413 118.829 26.4422C116.863 26.8338 114.857 26.5598 113.172 25.4271C111.705 24.4414 110.754 22.8665 110.417 21.1452C110.035 19.193 110.322 16.9638 111.449 15.301C112.69 13.468 114.453 12.8792 116.516 12.4843Z" fill="#003D32"/>
<path d="M179.456 7.38401C180.376 7.11842 184.132 7.25437 185.273 7.31912C184.838 7.32176 183.751 7.29559 183.387 7.40508L183.398 26.2047C182.917 26.3885 180.209 26.3125 179.594 26.2487C181.136 25.495 181.228 25.459 181.213 23.7196C181.168 18.6605 181.334 13.5691 181.143 8.51918C181.117 7.85061 179.939 7.66378 179.456 7.38401Z" fill="#003D32"/>
<path d="M163.288 12.8361C167.974 11.7525 165.271 10.4998 167.134 8.79639L167.354 8.83426C167.824 9.62848 167.664 11.7317 167.587 12.6851L167.665 12.9923C167.651 16.3054 167.446 21.0549 167.885 24.3236C167.924 24.6151 168.276 25.0199 168.568 25.1438C170.67 26.0371 170.861 23.9444 171.512 23.7366L171.573 23.9952C170.937 25.9135 169.615 27.0773 167.625 26.4198C167.19 26.2762 166.444 26.1372 166.209 25.6993C164.354 22.2417 166.104 17.4111 165.188 13.7179C165.057 13.228 163.837 12.9732 163.288 12.8361Z" fill="#003D32"/>
<path d="M257.846 12.7781C262.048 11.8136 259.717 10.9669 261.453 8.83309L261.75 8.81091C262.205 9.54413 262.046 11.7878 261.97 12.6935L262.05 12.988C261.958 16.1777 262.055 19.4564 262.035 22.6495C262.028 23.6551 262.613 25.698 263.947 25.4588C265.055 25.2599 265.596 23.9015 266.203 23.0619C265.489 26.1399 263.962 27.4245 260.939 26.0589C258.98 23.4785 259.981 19.3467 259.821 16.2501C259.701 13.9008 260.299 13.6566 257.846 12.7781Z" fill="#003D32"/>
<path d="M87.2716 12.2942C88.6391 10.845 88.0922 11.0377 88.6891 9.25469C88.7918 8.94767 88.9107 8.93762 89.1482 8.85938C89.944 9.38752 89.6374 11.6459 89.6556 12.659L89.584 13.0891C89.7499 16.3401 89.4438 20.6747 89.7471 23.9548C89.7799 24.3088 90.3537 25.1199 90.7816 25.2895C92.5492 25.9902 92.9452 23.8702 93.4287 23.704L93.5926 23.9016C93.5804 24.3569 92.8318 25.4293 92.5407 25.9833C84.7699 29.2768 88.3787 17.9752 87.2916 14.2148C86.9687 13.098 86.0968 13.0889 85.8969 12.7262L86.1062 12.8546L86.1003 12.6076L87.2716 12.2942Z" fill="#003D32"/>
<path d="M188.844 7.21057C198.133 7.77148 199.286 25.2454 188.601 26.3755L188.227 26.0889C192 25.0627 193.28 22.3337 193.811 18.7133C194.372 14.9017 193.165 8.14754 188.414 7.62161C188.295 7.52008 187.998 7.3917 187.842 7.31825C187.966 7.25547 188.659 7.22394 188.844 7.21057Z" fill="#003D32"/>
<path d="M316.667 12.7C317.542 12.6447 319.568 12.4378 320.23 13.0667C321.917 15.2255 320.595 19.6824 321.015 22.3076C321.467 25.1316 322.383 25.4639 324.986 25.2669C326.168 24.4234 326.494 23.9075 327.176 22.6066L327.55 22.9763C327.088 23.2898 326.335 25.9739 324.699 26.2935C323.424 26.5426 322.546 26.9493 321.206 26.2876C316.997 24.2081 319.794 17.5645 318.644 13.9389C318.459 13.3649 317.25 12.9465 316.667 12.7Z" fill="#003D32"/>
<path d="M79.9027 26.457C78.8542 26.4687 74.6359 26.5866 73.8094 26.3661C73.7829 26.0866 75.2848 25.7602 75.3067 25.1327C75.4359 21.4501 75.4119 17.7205 75.3241 14.0358C75.3101 13.4515 74.2106 13.2164 73.7607 12.9137L73.8335 12.6985C74.6236 12.2348 76.4342 12.7863 77.2158 13.1883C77.7155 14.4806 77.5358 15.6717 77.8306 16.1525L78.1687 16.7397C77.4953 18.549 77.4976 23.0713 77.7452 25.1112C77.8155 25.6902 79.3068 26.2179 79.9027 26.457Z" fill="#003D32"/>
<path d="M210.633 12.6678C212.564 12.5891 213.976 12.177 215.134 13.9461C215.189 14.6488 215.179 15.7227 215.194 16.4539L215.201 16.6608C215.446 16.8647 215.442 16.806 215.549 17.0802C215.18 18.4619 214.941 23.9749 215.256 25.1644C215.663 25.7073 216.206 25.8579 216.841 26.183L216.871 26.3644C216.391 26.5845 211.56 26.4557 210.659 26.4496C212.471 25.7347 213.067 25.8208 213.007 23.6731C212.918 20.4831 213.193 17.1494 212.872 13.9927C212.813 13.4143 211.092 12.8412 210.633 12.6678Z" fill="#003D32"/>
<path d="M305.913 26.1707C303.929 25.4105 301.959 23.9792 304.674 22.29L304.822 22.6193C304.703 23.1719 304.628 23.1166 304.811 23.5875C306.847 25.0369 315.379 23.9835 316.071 28.1379C316.241 29.0935 316.011 30.0764 315.437 30.8586C315.203 31.1813 314.904 31.5378 314.596 31.791L314.448 31.3756C316.146 29.5226 313.912 27.663 312.167 27.3079C310.545 26.9782 308.373 26.3984 306.755 26.2932L305.913 26.1707Z" fill="#003D32"/>
<path d="M304.674 22.29C304.75 21.9175 304.196 21.5429 303.954 21.1666C301.666 17.6044 303.256 13.6164 307.386 12.736C307.597 12.748 308.489 12.7747 308.614 12.8564C303.011 14.9213 304.739 23.7253 309.749 23.022C310.119 23.2394 310.486 23.2356 310.912 23.269C308.269 23.8999 305.429 22.4442 304.822 22.6193L304.674 22.29Z" fill="#003D32"/>
<path d="M307.386 12.7362C310.285 11.8595 312.237 13.5427 312.783 13.3703L313.183 13.3984C313.522 14.2483 314.193 14.7226 314.542 15.4319C316.065 18.5258 314.693 21.846 311.609 23.0563C311.383 23.1464 311.149 23.2176 310.912 23.2693C310.486 23.2359 310.119 23.2397 309.749 23.0223C310.222 22.8887 310.664 22.663 311.051 22.3579C313.849 20.1536 313.583 14.512 310.078 13.1101C309.71 12.9629 309.021 12.903 308.614 12.8567C308.489 12.775 307.597 12.7483 307.386 12.7362Z" fill="#003D32"/>
<path d="M305.913 26.1707L306.755 26.2931C298.887 29.6582 309.525 34.9133 314.448 31.3755L314.596 31.791C313.034 33.2748 310.412 33.4934 308.377 33.397C303.273 33.155 299.324 29.0511 305.913 26.1707Z" fill="#003D32"/>
<path d="M77.8305 16.1525C78.7559 14.6311 79.0081 13.1833 81.0783 12.6018C83.2852 11.9819 86.0183 13.7745 84.5086 16.1361C84.3196 16.4319 84.2408 16.4476 83.9363 16.5277C82.6736 16.1549 82.8447 13.9673 81.6432 13.714C79.874 13.3409 78.5913 15.3257 78.1686 16.7398L77.8305 16.1525Z" fill="#003D32"/>
<path d="M216.065 14.7855C217.246 12.5822 219.653 11.7598 221.708 13.2922C223.831 14.8763 221.743 16.8452 221.02 16.1526C219.739 14.9262 219.691 11.6688 216.33 15.1473L216.065 14.7855Z" fill="#003D32"/>
<path d="M55.4415 24.2123L55.4546 24.1852C55.6628 23.7441 55.7131 9.436 55.5395 8.53609C55.0323 7.61803 54.0233 7.68553 53.9473 7.17253C54.7394 6.91161 56.6288 6.99679 57.4964 7.03742L57.697 7.1882C57.4071 7.64 56.1759 8.19362 56.1653 8.25042C55.5398 11.5899 56.3194 21.8358 55.9372 24.5682C55.6723 24.4628 55.6142 24.4393 55.4415 24.2123Z" fill="#003D32"/>
<path d="M251.215 12.8707C249.826 13.1589 248.675 12.871 247.942 14.7469C247.716 15.3262 247.885 16.2233 247.468 16.6943C246.808 17.083 246.203 16.8978 245.771 16.3059C245.451 14.981 246.644 13.7177 247.723 13.1405C249.09 12.4079 250.691 12.2478 252.176 12.6956C252.001 12.7221 251.334 12.8071 251.215 12.8707Z" fill="#003D32"/>
<path d="M312.784 13.3701C312.653 9.48112 316.053 8.35068 316.82 10.259C316.629 11.6362 315.257 11.665 314.133 11.8926C313.71 12.4706 313.501 12.7573 313.184 13.3983L312.784 13.3701Z" fill="#003D32"/>
<path d="M200.311 20.8421C202.144 19.1819 205.138 17.6751 207.671 18.0311C208.001 18.393 208.848 18.1124 209.501 18.4791C205.497 18.5756 204.438 18.5525 201.037 20.8562C200.77 20.711 200.656 20.791 200.311 20.8421Z" fill="#003D32"/>
<path d="M179.456 7.38389C179.526 7.14881 179.504 7.21625 179.727 7.0499C180.906 6.94663 187.996 6.92471 188.844 7.21047C188.659 7.22384 187.966 7.25537 187.842 7.31815C187.998 7.3916 188.295 7.51998 188.414 7.62151C186.899 7.45229 184.765 7.64904 183.387 7.40495C183.751 7.29546 184.838 7.32164 185.273 7.319C184.132 7.25425 180.376 7.11829 179.456 7.38389Z" fill="#003D32"/>
<path d="M183.398 26.2044C184.946 25.9867 186.718 26.2115 188.227 26.0886L188.601 26.3752C188.213 26.5712 179.83 26.5507 179.527 26.3856L179.594 26.2483C180.209 26.3122 182.917 26.3882 183.398 26.2044Z" fill="#003D32"/>
<path d="M271.903 12.7273C272.949 12.4142 273.466 12.4253 274.521 12.5241L274.6 13.0173C273.759 12.9504 272.877 12.8646 272.089 13.2388L271.903 12.7273Z" fill="#003D32"/>
<path d="M216.065 14.7854L216.33 15.1472C216.158 15.9044 215.753 16.4349 215.549 17.0802C215.442 16.806 215.446 16.8648 215.201 16.6608L215.194 16.454C215.569 15.9134 215.604 15.407 216.065 14.7854Z" fill="#003D32"/>
<path d="M89.6556 12.6593C90.3182 12.641 92.2044 12.4903 92.6195 12.8518C92.1022 13.1622 89.966 12.8895 89.584 13.0894L89.6556 12.6593Z" fill="#003D32"/>
<path d="M261.97 12.6935C262.736 12.6436 264.085 12.5044 264.763 12.779C264.328 13.149 262.661 13.0115 262.05 12.988L261.97 12.6935Z" fill="#003D32"/>
<path d="M167.587 12.6851C168.121 12.6546 170.023 12.4809 170.384 12.8229C169.697 13.1015 168.44 13.0117 167.665 12.9922L167.587 12.6851Z" fill="#003D32"/>
<path d="M253.457 17.4882L253.983 17.628C253.557 18.0135 253.124 18.3917 252.684 18.7628L252.695 18.0595L253.457 17.4882Z" fill="#003D32"/>
</svg>
