<svg width="24" height="24" viewBox="0 0 24 24" fill="none" xmlns="http://www.w3.org/2000/svg">
<path d="M12.055 0C10.2024 2.42637 7.60873 8.05903 12.055 11.1786C13.9077 10.0521 16.5014 6.23925 12.055 0Z" fill="#003D32"/>
<path d="M24 11.8853C21.6421 9.97891 16.1684 7.3099 13.1368 11.8853C14.2316 13.7918 17.9368 16.4608 24 11.8853Z" fill="#003D32"/>
<path d="M12.0551 23.6572C13.9078 21.2309 16.5014 15.5982 12.0551 12.4786C10.2025 13.6051 7.6088 17.418 12.0551 23.6572Z" fill="#003D32"/>
<path d="M1.07313e-07 11.8853C2.35789 13.7917 7.83158 16.4607 10.8632 11.8853C9.76842 9.97884 6.06316 7.30983 1.07313e-07 11.8853Z" fill="#003D32"/>
</svg>
